<svg version="1.1" id="Layer_1" xmlns="http://www.w3.org/2000/svg" xmlns:xlink="http://www.w3.org/1999/xlink" x="0px" y="0px"
	 width="100%" viewBox="0 0 1024 352" enable-background="new 0 0 1024 352" xml:space="preserve">
<path fill="#000000" opacity="1.000000" stroke="none" 
	d="
M831.953125,233.046295 
	C854.296326,254.077332 876.362427,274.891815 902.243652,291.075684 
	C905.348633,293.017273 908.405945,295.172150 911.766663,296.533813 
	C916.107422,298.292542 917.306030,300.697266 916.178467,305.328094 
	C914.268738,313.170959 914.864929,321.219269 915.871643,329.162292 
	C916.615356,335.029907 916.233398,335.596222 910.772827,334.310089 
	C889.307617,329.254364 867.503479,327.083496 845.506470,326.104156 
	C809.463928,324.499451 773.654175,327.240997 737.880005,331.100739 
	C735.771729,331.328156 733.611938,331.849884 731.423279,331.023163 
	C731.423279,330.517670 731.244629,329.946320 731.448547,329.600586 
	C755.877991,288.175110 774.327148,244.305664 784.165527,197.149261 
	C785.598267,190.281906 788.965149,185.137680 791.930847,179.346222 
	C800.433655,162.741867 808.125427,145.750381 815.450256,128.587814 
	C826.328918,103.098366 835.079224,76.973366 839.791626,49.593616 
	C839.937683,48.744904 840.222656,47.989479 841.256409,47.578812 
	C843.665222,48.087429 844.747009,50.337124 846.294617,51.970196 
	C876.459473,83.800880 907.530273,114.651123 942.714905,141.042862 
	C950.454529,146.848297 958.584839,152.086304 967.237122,156.424988 
	C970.221985,157.921768 971.389160,159.435806 970.505981,162.996323 
	C968.438171,171.332626 968.780090,179.827255 969.960144,188.294693 
	C970.208069,190.073349 970.722961,191.910309 969.135803,194.211655 
	C910.364807,180.268845 850.945740,184.036240 790.058533,190.311707 
	C803.818420,205.842392 817.872131,219.212128 831.953125,233.046295 
M890.984253,120.532768 
	C880.154724,111.607658 870.087585,101.734169 858.147949,93.259308 
	C847.668518,113.655128 840.282654,134.327209 834.091919,156.270432 
	C867.832825,158.192200 900.642578,161.204865 933.839600,160.732361 
	C920.589722,146.209122 905.872681,133.799423 890.984253,120.532768 
M787.059631,274.436279 
	C784.609680,281.584106 781.708679,288.610840 780.610718,296.993134 
	C814.107239,299.342957 847.041199,301.978455 880.295288,301.585052 
	C856.112488,277.803925 830.719055,255.786041 804.458374,233.864563 
	C796.846741,247.146744 792.118408,260.439667 787.059631,274.436279 
z"/>
<path fill="#000000" opacity="1.000000" stroke="none" 
	d="
M45.429482,235.493774 
	C63.425858,193.327805 81.222305,151.493652 94.943390,108.074554 
	C101.371513,87.733353 106.341949,67.060760 109.397896,45.934387 
	C110.776314,36.405170 110.846046,36.428940 120.816879,34.591488 
	C133.097549,32.328365 144.246109,27.126574 155.185226,21.361090 
	C157.517548,20.131832 159.700897,18.515720 163.397202,17.895782 
	C167.954681,43.296494 171.702393,68.945274 181.858521,92.886749 
	C191.945908,116.666206 203.812164,139.521759 219.064163,160.870392 
	C215.526672,163.005829 212.139175,162.792374 208.976212,163.201706 
	C193.171936,165.246933 178.491974,170.070282 165.768204,180.006821 
	C161.112030,183.643036 161.266769,186.423416 166.529846,189.169022 
	C170.458694,191.218658 174.782501,191.670303 179.147903,191.710815 
	C186.834427,191.782166 194.488541,192.163254 201.816025,194.775879 
	C212.432068,198.561066 219.069260,209.965332 217.163452,220.979477 
	C216.054718,227.387161 210.422012,231.877960 203.673584,231.679382 
	C203.747131,229.369583 205.973190,229.656296 207.190445,228.801407 
	C210.468704,226.499039 213.335709,223.952789 212.403473,219.437012 
	C211.462128,214.877121 208.083878,212.929672 203.827026,212.258865 
	C198.845139,211.473831 193.842834,212.188995 188.852386,212.274277 
	C184.339584,212.351395 179.872665,212.237061 175.443100,211.240524 
	C159.905289,207.744919 151.750778,193.185715 157.542023,178.340134 
	C159.100067,174.346161 159.280777,170.691559 158.552475,166.757965 
	C153.737732,140.753250 144.677307,116.071358 135.043961,91.571785 
	C134.818039,90.997253 134.316025,90.531288 133.797852,89.814087 
	C131.373642,91.183205 131.009323,93.635376 130.173294,95.654716 
	C113.542770,135.824051 98.719284,176.677719 84.215927,217.647827 
	C78.497849,233.800690 71.384033,249.753616 69.421707,266.776947 
	C68.333725,276.215363 64.124290,278.235931 56.449215,279.417664 
	C46.802216,280.902954 37.407082,283.704590 26.849764,287.591675 
	C31.548838,268.852142 38.324203,252.317368 45.429482,235.493774 
z"/>
<path fill="#000000" opacity="1.000000" stroke="none" 
	d="
M272.630280,179.424316 
	C257.140442,167.594269 239.181396,163.869186 219.521469,161.746414 
	C250.343872,117.782898 270.174286,70.606918 275.188385,16.943666 
	C280.932648,19.832577 285.269745,21.876219 289.478302,24.157026 
	C300.591187,30.179586 312.402344,33.995628 324.928802,35.563251 
	C327.556641,35.892113 329.108582,36.657234 329.374481,39.735130 
	C331.244202,61.378345 336.384766,82.368393 342.687561,103.074448 
	C356.628174,148.872223 375.467255,192.793396 394.255554,236.727570 
	C400.412994,251.126022 406.036774,265.719574 410.521088,280.734253 
	C411.076813,282.594879 411.991425,284.441803 411.111084,286.876678 
	C406.171387,285.392120 401.342041,283.756378 396.415314,282.503540 
	C389.160797,280.658722 381.849854,279.027100 374.534515,277.435333 
	C372.349091,276.959839 370.754333,276.267365 370.747284,273.694031 
	C370.710358,260.227661 365.454620,247.978912 361.249146,235.607452 
	C345.332611,188.785233 328.110291,142.434555 309.514099,96.602974 
	C308.597260,94.343430 307.439209,92.181747 306.435333,90.062813 
	C304.055084,90.502327 303.919769,92.254120 303.425934,93.525902 
	C294.262451,117.124359 285.410004,140.818878 280.884094,165.871231 
	C280.047882,170.499802 279.878448,174.738525 281.545593,179.443130 
	C287.478851,196.186844 275.937073,211.278900 256.794739,212.201309 
	C251.813461,212.441330 246.803909,212.032455 241.807846,212.051605 
	C238.985840,212.062408 236.089798,211.989655 233.361404,212.577667 
	C229.491837,213.411636 226.817566,215.895782 226.312653,220.043930 
	C225.826447,224.038437 227.987061,226.625000 231.222137,228.576157 
	C232.685547,229.458801 234.807053,229.425415 235.671356,231.460342 
	C227.679840,233.114502 220.302231,225.200684 221.248779,216.288147 
	C222.688629,202.730560 230.582520,194.910370 244.321594,192.687088 
	C251.764542,191.482651 259.327332,192.476288 266.700836,190.918716 
	C268.479218,190.543045 270.314697,190.151108 271.937164,189.375763 
	C277.650238,186.645508 277.914612,183.577896 272.630280,179.424316 
z"/>
<path fill="#000000" opacity="1.000000" stroke="none" 
	d="
M617.500854,74.438629 
	C623.776978,101.877548 633.924805,127.605202 643.284180,153.579391 
	C654.682983,185.213501 666.372681,216.742386 679.290039,247.798370 
	C680.160095,249.890106 681.238159,251.895294 682.738770,255.023178 
	C695.197327,223.783981 706.433655,193.505325 709.943970,159.430054 
	C727.007202,173.876053 746.373230,179.430527 768.703186,181.333328 
	C738.119873,225.445526 718.144043,272.521881 713.390259,324.440430 
	C710.640686,325.866486 709.444641,324.657288 708.192078,323.970886 
	C694.110046,316.253937 679.724304,309.386963 663.454834,307.687805 
	C660.699768,307.400055 658.953125,306.468323 658.703369,303.160034 
	C656.951599,279.957428 650.993286,257.620361 644.131775,235.524734 
	C630.333130,191.090683 611.940979,148.425110 593.715637,105.701103 
	C587.507812,91.148865 581.709106,76.443237 577.370605,61.202805 
	C576.924988,59.637486 576.051025,58.092205 577.421631,56.036594 
	C587.370300,59.411385 597.588684,62.252438 608.025024,64.228188 
	C608.515259,64.320999 608.995911,64.464180 609.484924,64.564651 
	C617.198364,66.149239 617.198486,66.148514 617.500854,74.438629 
z"/>
<path fill="#000000" opacity="1.000000" stroke="none" 
	d="
M392.557983,205.391220 
	C387.633606,197.511322 382.886841,189.950455 377.529968,181.417877 
	C398.977142,179.255859 418.559753,174.171295 435.685028,159.220886 
	C439.192841,193.176712 450.357941,223.474106 462.541748,253.990784 
	C464.800568,252.300995 465.432343,250.014542 466.238708,248.004959 
	C487.636017,194.678818 508.062256,140.995743 525.318848,86.158272 
	C526.870483,81.227348 528.069946,76.205650 527.908508,70.964935 
	C527.830383,68.430695 528.381409,66.350830 531.348450,65.736458 
	C543.252441,63.271587 555.116638,60.645660 566.632263,56.660313 
	C567.195251,56.465462 567.884399,56.635277 568.492493,56.635277 
	C569.623657,58.927116 568.311340,60.721760 567.778687,62.535351 
	C559.539917,90.588242 546.699829,116.832542 535.752869,143.821823 
	C520.418884,181.627411 504.791138,219.332352 494.810608,259.033844 
	C491.243500,273.223541 487.857666,287.470215 487.077148,302.163300 
	C486.901367,305.472687 485.738098,307.147247 482.088257,307.572601 
	C466.782623,309.356232 452.846222,315.165649 439.549774,322.709625 
	C437.846405,323.676056 436.222015,324.953613 432.622742,324.909332 
	C428.187256,282.419617 414.863007,242.537613 392.557983,205.391220 
z"/>
</svg>