<svg xmlns:inkscape="http://www.inkscape.org/namespaces/inkscape" xmlns:sodipodi="http://sodipodi.sourceforge.net/DTD/sodipodi-0.dtd" xmlns="http://www.w3.org/2000/svg" xmlns:svg="http://www.w3.org/2000/svg" version="1.1" id="svg5" xml:space="preserve" inkscape:version="1.2.2 (732a01da63, 2022-12-09)" sodipodi:docname="WMJJB.svg" viewBox="13.9 109.83 184.08 62"><sodipodi:namedview id="namedview7" pagecolor="#ffffff" bordercolor="#000000" borderopacity="0.25" inkscape:showpageshadow="2" inkscape:pageopacity="0.0" inkscape:pagecheckerboard="0" inkscape:deskcolor="#d1d1d1" inkscape:document-units="mm" showgrid="false" inkscape:zoom="0.5852904" inkscape:cx="396.38442" inkscape:cy="562.9684" inkscape:window-width="1600" inkscape:window-height="838" inkscape:window-x="-8" inkscape:window-y="-8" inkscape:window-maximized="1" inkscape:current-layer="layer1"/><defs id="defs2"/><g inkscape:label="Layer 1" inkscape:groupmode="layer" id="layer1"><g id="g29" transform="matrix(0.19500811,0,0,0.19500811,8.668987,106.52605)" style="fill:#ffffff"><path fill="#000000" opacity="1" stroke="none" d="m 831.95312,233.04629 c 22.34321,21.03104 44.40931,41.84552 70.29053,58.02939 3.10498,1.94159 6.16229,4.09647 9.52301,5.45813 4.34076,1.75873 5.53937,4.16346 4.41181,8.79428 -1.90973,7.84287 -1.31354,15.89118 -0.30683,23.8342 0.74372,5.86762 0.36176,6.43393 -5.09881,5.1478 -21.46521,-5.05573 -43.26935,-7.22659 -65.26636,-8.20593 -36.04254,-1.60471 -71.8523,1.13684 -107.62647,4.99658 -2.10827,0.22742 -4.26806,0.74914 -6.45672,-0.0776 0,-0.50549 -0.17865,-1.07684 0.0253,-1.42257 24.42944,-41.42548 42.8786,-85.29493 52.71698,-132.45133 1.43274,-6.86735 4.79962,-12.01158 7.76532,-17.80304 8.50281,-16.60435 16.19458,-33.59584 23.51941,-50.75841 10.87866,-25.48944 19.62896,-51.614444 24.34137,-78.994194 0.14605,-0.848712 0.43103,-1.604137 1.46478,-2.014804 2.40881,0.508617 3.4906,2.758312 5.03821,4.391384 30.16485,31.830684 61.23565,62.680924 96.42029,89.072664 7.73962,5.80544 15.86993,11.04344 24.52221,15.38213 2.98487,1.49678 4.15204,3.01082 3.26886,6.57133 -2.06781,8.33631 -1.72589,16.83093 -0.54584,25.29837 0.24793,1.77866 0.76282,3.61562 -0.82434,5.91696 -58.77099,-13.94281 -118.19006,-10.17541 -179.07727,-3.89994 13.75989,15.53068 27.8136,28.90042 41.89459,42.73458 m 59.03113,-112.51352 c -10.82953,-8.92511 -20.89667,-18.7986 -32.8363,-27.273462 -10.47943,20.395822 -17.8653,41.067902 -24.05603,63.011122 33.7409,1.92177 66.55066,4.93443 99.74768,4.46193 C 920.58975,146.2091 905.87271,133.7994 890.98428,120.53275 M 787.05963,274.43628 c -2.44995,7.14783 -5.35095,14.17456 -6.44891,22.55685 33.49652,2.34983 66.43048,4.98532 99.68457,4.59192 -24.1828,-23.78113 -49.57623,-45.79901 -75.83692,-67.72049 -7.61163,13.28218 -12.33996,26.57511 -17.39874,40.57172 z" id="path9" style="fill:#ffffff"/><path fill="#000000" opacity="1" stroke="none" d="M 45.429482,235.49377 C 63.425858,193.3278 81.222305,151.49365 94.94339,108.07455 c 6.42812,-20.341197 11.39856,-41.01379 14.45451,-62.140163 1.37841,-9.529217 1.44815,-9.505447 11.41898,-11.342899 12.28067,-2.263123 23.42923,-7.464914 34.36835,-13.230398 2.33232,-1.229258 4.51567,-2.84537 8.21197,-3.465308 4.55748,25.400712 8.30519,51.049492 18.46132,74.990967 10.08739,23.779461 21.95364,46.635011 37.20564,67.983641 -3.53749,2.13544 -6.92499,1.92198 -10.08795,2.33132 -15.80427,2.04522 -30.48424,6.86857 -43.20801,16.80511 -4.65617,3.63622 -4.50143,6.4166 0.76165,9.1622 3.92884,2.04964 8.25265,2.50128 12.61805,2.54179 7.68653,0.0714 15.34064,0.45244 22.66812,3.06507 10.61605,3.78519 17.25324,15.18945 15.34743,26.2036 -1.10873,6.40768 -6.74144,10.89848 -13.48987,10.6999 0.0736,-2.3098 2.29961,-2.02308 3.51686,-2.87797 3.27826,-2.30237 6.14527,-4.84862 5.21303,-9.3644 -0.94134,-4.55989 -4.31959,-6.50734 -8.57644,-7.17815 -4.98189,-0.78503 -9.9842,-0.0699 -14.97464,0.0154 -4.51281,0.0771 -8.97973,-0.0372 -13.40929,-1.03376 -15.53781,-3.4956 -23.69232,-18.05481 -17.90108,-32.90039 1.55805,-3.99397 1.73876,-7.64857 1.01045,-11.58216 -4.81474,-26.00472 -13.87516,-50.68661 -23.50851,-75.186185 -0.22592,-0.574532 -0.72794,-1.040497 -1.24611,-1.757698 -2.42421,1.369118 -2.78853,3.821289 -3.62456,5.840629 -16.63052,40.169334 -31.454006,81.023004 -45.957363,121.993114 -5.718078,16.15286 -12.831894,32.10579 -14.79422,49.12912 -1.087982,9.43841 -5.297417,11.45898 -12.972492,12.64071 -9.646999,1.48529 -19.042133,4.28693 -29.599451,8.17401 4.699074,-18.73953 11.474439,-35.2743 18.579718,-52.0979 z" id="path11" style="fill:#ffffff"/><path fill="#000000" opacity="1" stroke="none" d="m 272.63028,179.42432 c -15.48984,-11.83005 -33.44888,-15.55513 -53.10881,-17.67791 30.8224,-43.96351 50.65282,-91.139492 55.66691,-144.802744 5.74427,2.888911 10.08136,4.932553 14.28992,7.21336 11.11289,6.02256 22.92404,9.838602 35.4505,11.406225 2.62784,0.328862 4.17978,1.093983 4.44568,4.171879 1.86972,21.643215 7.01029,42.633263 13.31308,63.33932 13.94061,45.79777 32.7797,89.71895 51.56799,133.65312 6.15744,14.39845 11.78122,28.992 16.26554,44.00668 0.55572,1.86063 1.47033,3.70755 0.58999,6.14243 -4.93969,-1.48456 -9.76904,-3.1203 -14.69577,-4.37314 -7.25451,-1.84482 -14.56546,-3.47644 -21.8808,-5.06821 -2.18542,-0.47549 -3.78018,-1.16797 -3.78723,-3.7413 -0.0369,-13.46637 -5.29266,-25.71512 -9.49813,-38.08658 -15.91654,-46.82222 -33.13886,-93.1729 -51.73505,-139.004476 -0.91684,-2.259544 -2.07489,-4.421227 -3.07877,-6.540161 -2.38025,0.439514 -2.51556,2.191307 -3.0094,3.463089 -9.16348,23.598458 -18.01593,47.292978 -22.54184,72.345328 -0.83621,4.62857 -1.00564,8.86729 0.6615,13.5719 5.93326,16.74371 -5.60852,31.83577 -24.75085,32.75818 -4.98128,0.24002 -9.99083,-0.16886 -14.98689,-0.14971 -2.82201,0.0108 -5.71805,-0.0619 -8.44645,0.52607 -3.86956,0.83397 -6.54383,3.31811 -7.04875,7.46626 -0.4862,3.99451 1.67441,6.58107 4.90949,8.53223 1.46341,0.88264 3.58491,0.84925 4.44922,2.88418 -7.99152,1.65416 -15.36913,-6.25966 -14.42258,-15.17219 1.43985,-13.55759 9.33374,-21.37778 23.07281,-23.60106 7.44295,-1.20444 15.00574,-0.2108 22.37925,-1.76837 1.77838,-0.37568 3.61386,-0.76761 5.23632,-1.54296 5.71308,-2.73025 5.97745,-5.79786 0.69312,-9.95144 z" id="path13" style="fill:#ffffff"/><path fill="#000000" opacity="1" stroke="none" d="m 617.50085,74.438629 c 6.27613,27.438921 16.42395,53.166571 25.78333,79.140761 11.3988,31.63411 23.0885,63.163 36.00586,94.21898 0.87005,2.09174 1.94812,4.09692 3.44873,7.22481 12.45856,-31.2392 23.69489,-61.51786 27.2052,-95.59313 17.06323,14.446 36.42926,20.00048 58.75922,21.90328 -30.58332,44.1122 -50.55915,91.18855 -55.31293,143.1071 -2.74957,1.42606 -3.94562,0.21686 -5.19818,-0.46954 -14.08203,-7.71695 -28.46778,-14.58393 -44.73725,-16.28308 -2.75506,-0.28776 -4.50171,-1.21949 -4.75146,-4.52778 -1.75177,-23.2026 -7.71008,-45.53967 -14.5716,-67.6353 C 630.33313,191.09068 611.94098,148.42511 593.71564,105.7011 587.50781,91.148865 581.70911,76.443237 577.3706,61.202805 c -0.44561,-1.565319 -1.31958,-3.1106 0.051,-5.166211 9.94867,3.374791 20.16705,6.215844 30.60339,8.191594 0.49024,0.09281 0.97089,0.235992 1.4599,0.336463 7.71344,1.584588 7.71357,1.583863 8.01593,9.873978 z" id="path15" style="fill:#ffffff"/><path fill="#000000" opacity="1" stroke="none" d="m 392.55798,205.39122 c -4.92437,-7.8799 -9.67114,-15.44077 -15.02801,-23.97334 21.44717,-2.16202 41.02978,-7.24659 58.15506,-22.19699 3.50781,33.95582 14.67291,64.25322 26.85672,94.76989 2.25882,-1.68979 2.89059,-3.97624 3.69696,-5.98582 21.39731,-53.32614 41.82355,-107.00922 59.08014,-161.846688 1.55163,-4.930924 2.7511,-9.952622 2.58966,-15.193337 -0.0781,-2.53424 0.4729,-4.614105 3.43994,-5.228477 11.90399,-2.464871 23.76819,-5.090798 35.28381,-9.076145 0.56299,-0.194851 1.25214,-0.02504 1.86023,-0.02504 1.13117,2.291839 -0.18115,4.086483 -0.7138,5.900074 -8.23877,28.052891 -21.07886,54.297193 -32.02582,81.286473 -15.33399,37.80559 -30.96173,75.51053 -40.94226,115.21202 -3.56711,14.1897 -6.95294,28.43637 -7.73346,43.12946 -0.17578,3.30939 -1.33905,4.98395 -4.98889,5.4093 -15.30564,1.78363 -29.24204,7.59305 -42.53849,15.13703 -1.70337,0.96643 -3.32776,2.24398 -6.92703,2.1997 -4.43548,-42.48971 -17.75973,-82.37172 -40.06476,-119.51811 z" id="path17" style="fill:#ffffff"/></g></g></svg>